<svg width="15" height="26" viewBox="0 0 15 26" fill="none" xmlns="http://www.w3.org/2000/svg">
<path d="M12.0277 25.4855L0.380184 13.9604C0.241935 13.8232 0.14424 13.6746 0.0870968 13.5145C0.0290323 13.3544 0 13.1829 0 13C0 12.8171 0.0290323 12.6456 0.0870968 12.4855C0.14424 12.3254 0.241935 12.1768 0.380184 12.0396L12.0277 0.480211C12.3502 0.16007 12.7535 0 13.2373 0C13.7212 0 14.1359 0.171504 14.4816 0.514512C14.8272 0.85752 15 1.2577 15 1.71504C15 2.17238 14.8272 2.57256 14.4816 2.91557L4.32028 13L14.4816 23.0844C14.8041 23.4046 14.9654 23.7988 14.9654 24.2671C14.9654 24.7364 14.7926 25.1425 14.447 25.4855C14.1014 25.8285 13.6982 26 13.2373 26C12.7765 26 12.3733 25.8285 12.0277 25.4855Z" fill="#828282"/>
</svg>
