<svg width="49" height="68" viewBox="0 0 49 68" fill="none" xmlns="http://www.w3.org/2000/svg">
<path d="M24.5 47.6C32.221 47.6 38.5 41.497 38.5 34V13.6C38.5 6.0996 32.221 0 24.5 0C16.779 0 10.5 6.0996 10.5 13.6V34C10.5 41.497 16.779 47.6 24.5 47.6ZM49 34V27.2C49 26.2983 48.6313 25.4335 47.9749 24.7958C47.3185 24.1582 46.4283 23.8 45.5 23.8C44.5717 23.8 43.6815 24.1582 43.0251 24.7958C42.3687 25.4335 42 26.2983 42 27.2V34C42 43.3738 34.1495 51 24.5 51C14.8505 51 7 43.3738 7 34V27.2C7 26.2983 6.63125 25.4335 5.97487 24.7958C5.3185 24.1582 4.42826 23.8 3.5 23.8C2.57174 23.8 1.6815 24.1582 1.02513 24.7958C0.36875 25.4335 0 26.2983 0 27.2V34C0 45.968 9.1455 55.8688 21 57.528V61.2H10.5C9.57174 61.2 8.6815 61.5582 8.02513 62.1958C7.36875 62.8335 7 63.6983 7 64.6C7 65.5017 7.36875 66.3665 8.02513 67.0042C8.6815 67.6418 9.57174 68 10.5 68H38.5C39.4283 68 40.3185 67.6418 40.9749 67.0042C41.6313 66.3665 42 65.5017 42 64.6C42 63.6983 41.6313 62.8335 40.9749 62.1958C40.3185 61.5582 39.4283 61.2 38.5 61.2H28V57.528C39.8545 55.8688 49 45.968 49 34Z" fill="#E93E30"/>
</svg>
