<svg width="221" height="222" viewBox="0 0 221 222" fill="none" xmlns="http://www.w3.org/2000/svg">
<path d="M21.2527 187.016L19.3063 179.327C15.8553 177.863 12.3245 176.594 8.73084 175.527L8.48517 179.1L7.48883 175.164C3.03202 173.888 0 173.327 0 173.327C0 173.327 4.09452 188.924 12.6853 200.849L22.6944 202.61L14.9186 203.732C15.9992 205.035 17.1606 206.268 18.3957 207.424C30.8914 219.04 44.8095 224.37 49.4824 219.328C54.1552 214.286 47.8134 200.782 35.3177 189.166C31.4439 185.565 26.5776 182.675 21.7063 180.4L21.2527 187.016Z" fill="#F2F2F2"/>
<path d="M39.7628 178.665L42.0647 171.076C39.8666 168.035 37.4991 165.121 34.9734 162.348L32.919 165.279L34.0976 161.394C30.9403 157.995 28.6346 155.945 28.6346 155.945C28.6346 155.945 24.0906 171.417 25.2893 186.072L32.9487 192.761L25.7115 189.697C25.9647 191.372 26.3228 193.028 26.7838 194.658C31.4854 211.071 40.6491 222.839 47.2514 220.942C53.8536 219.045 55.3947 204.201 50.6931 187.788C49.2357 182.7 46.5612 177.707 43.5654 173.238L39.7628 178.665Z" fill="#F2F2F2"/>
<path d="M154.213 52.5919H152.999V19.2805C152.999 16.7486 152.501 14.2414 151.533 11.9022C150.566 9.56296 149.148 7.43749 147.36 5.64713C145.572 3.85677 143.45 2.43658 141.115 1.46764C138.779 0.498704 136.276 0 133.747 0H63.278C58.1722 0 53.2757 2.03133 49.6654 5.64713C46.0551 9.26293 44.0269 14.167 44.0269 19.2805V202.033C44.0269 204.565 44.5248 207.072 45.4923 209.411C46.4597 211.75 47.8777 213.876 49.6654 215.666C51.453 217.456 53.5752 218.877 55.9109 219.846C58.2465 220.815 60.7499 221.313 63.278 221.313H133.747C138.853 221.313 143.75 219.282 147.36 215.666C150.97 212.05 152.998 207.146 152.998 202.033V76.3037H154.212L154.213 52.5919Z" fill="#E6E6E6"/>
<path d="M134.524 5.01416H125.326C125.749 6.0529 125.911 7.1799 125.797 8.29587C125.682 9.41184 125.296 10.4825 124.671 11.4136C124.046 12.3446 123.202 13.1075 122.214 13.635C121.225 14.1624 120.122 14.4383 119.002 14.4382H78.6308C77.5107 14.4382 76.4078 14.1622 75.4193 13.6347C74.4308 13.1073 73.587 12.3444 72.9622 11.4133C72.3375 10.4823 71.9509 9.41164 71.8366 8.29572C71.7223 7.17981 71.8838 6.05286 72.3068 5.01416H63.7154C59.9025 5.01416 56.2458 6.53114 53.5497 9.23138C50.8535 11.9316 49.3389 15.5939 49.3389 19.4127V201.9C49.3389 205.718 50.8535 209.381 53.5497 212.081C56.2458 214.781 59.9025 216.298 63.7154 216.298H134.524C138.337 216.298 141.994 214.781 144.69 212.081C147.386 209.381 148.901 205.718 148.901 201.9V19.4124C148.901 15.5937 147.386 11.9315 144.69 9.23128C141.994 6.5311 138.337 5.01416 134.524 5.01416Z" fill="white"/>
<path d="M90.0969 77.7079C90.0967 76.4323 90.4319 75.1792 91.069 74.0746C91.706 72.97 92.6223 72.053 93.7256 71.4158C92.6228 70.7779 91.3718 70.442 90.0983 70.4419C88.8247 70.4418 87.5736 70.7774 86.4707 71.415C85.3678 72.0527 84.4519 72.9699 83.8151 74.0744C83.1783 75.179 82.843 76.432 82.843 77.7074C82.843 78.9829 83.1783 80.2359 83.8151 81.3404C84.4519 82.445 85.3678 83.3622 86.4707 83.9998C87.5736 84.6375 88.8247 84.9731 90.0983 84.9729C91.3718 84.9728 92.6228 84.6369 93.7256 83.999C92.6223 83.362 91.7061 82.4451 91.0691 81.3407C90.432 80.2363 90.0967 78.9833 90.0969 77.7079Z" fill="#CCCCCC"/>
<path d="M99.2165 77.7079C99.2163 76.4323 99.5515 75.1791 100.189 74.0746C100.826 72.97 101.742 72.053 102.845 71.4158C101.742 70.7779 100.491 70.442 99.2179 70.4419C97.9444 70.4418 96.6933 70.7774 95.5903 71.415C94.4874 72.0527 93.5715 72.9699 92.9347 74.0744C92.2979 75.179 91.9626 76.432 91.9626 77.7074C91.9626 78.9829 92.2979 80.2359 92.9347 81.3404C93.5715 82.445 94.4874 83.3622 95.5903 83.9998C96.6933 84.6375 97.9444 84.9731 99.2179 84.9729C100.491 84.9728 101.742 84.6369 102.845 83.999C101.742 83.362 100.826 82.4451 100.189 81.3407C99.5517 80.2363 99.2164 78.9833 99.2165 77.7079Z" fill="#CCCCCC"/>
<path d="M108.129 84.9729C112.136 84.9729 115.384 81.72 115.384 77.7074C115.384 73.6948 112.136 70.4419 108.129 70.4419C104.123 70.4419 100.875 73.6948 100.875 77.7074C100.875 81.72 104.123 84.9729 108.129 84.9729Z" fill="#0165FF"/>
<path d="M120.253 100.401H77.9728C77.5703 100.4 77.1844 100.24 76.8998 99.9549C76.6152 99.6699 76.4551 99.2834 76.4546 98.8802V56.5352C76.4551 56.1321 76.6152 55.7456 76.8998 55.4605C77.1844 55.1755 77.5703 55.0151 77.9728 55.0146H120.253C120.656 55.0151 121.042 55.1755 121.326 55.4605C121.611 55.7456 121.771 56.1321 121.772 56.5352V98.8802C121.771 99.2834 121.611 99.6699 121.326 99.9549C121.042 100.24 120.656 100.4 120.253 100.401ZM77.9728 55.6232C77.7313 55.6235 77.4998 55.7197 77.329 55.8907C77.1582 56.0617 77.0622 56.2936 77.0619 56.5355V98.8805C77.0622 99.1224 77.1582 99.3543 77.329 99.5253C77.4998 99.6964 77.7313 99.7926 77.9728 99.7928H120.253C120.495 99.7926 120.726 99.6964 120.897 99.5253C121.068 99.3543 121.164 99.1224 121.164 98.8805V56.5355C121.164 56.2936 121.068 56.0617 120.897 55.8907C120.726 55.7197 120.495 55.6235 120.253 55.6232H77.9728Z" fill="#CCCCCC"/>
<path d="M129.694 132.86H64.8484V133.468H129.694V132.86Z" fill="#CCCCCC"/>
<path d="M66.8962 129.062C68.0272 129.062 68.9441 128.144 68.9441 127.011C68.9441 125.879 68.0272 124.96 66.8962 124.96C65.7652 124.96 64.8484 125.879 64.8484 127.011C64.8484 128.144 65.7652 129.062 66.8962 129.062Z" fill="#0165FF"/>
<path d="M129.694 153.369H64.8484V153.977H129.694V153.369Z" fill="#CCCCCC"/>
<path d="M66.8962 149.571C68.0272 149.571 68.9441 148.653 68.9441 147.52C68.9441 146.387 68.0272 145.469 66.8962 145.469C65.7652 145.469 64.8484 146.387 64.8484 147.52C64.8484 148.653 65.7652 149.571 66.8962 149.571Z" fill="#0165FF"/>
<path d="M128.507 176.723H108.014C107.66 176.723 107.321 176.582 107.07 176.331C106.82 176.08 106.679 175.74 106.679 175.386V168.192C106.679 167.838 106.82 167.498 107.07 167.247C107.321 166.996 107.66 166.855 108.014 166.855H128.507C128.861 166.855 129.2 166.996 129.451 167.247C129.701 167.498 129.842 167.838 129.842 168.192V175.386C129.842 175.74 129.701 176.08 129.451 176.331C129.2 176.582 128.861 176.723 128.507 176.723Z" fill="#0165FF"/>
<path d="M73.5762 129.062C74.7072 129.062 75.624 128.144 75.624 127.011C75.624 125.879 74.7072 124.96 73.5762 124.96C72.4452 124.96 71.5283 125.879 71.5283 127.011C71.5283 128.144 72.4452 129.062 73.5762 129.062Z" fill="#0165FF"/>
<path d="M80.2564 129.062C81.3874 129.062 82.3042 128.144 82.3042 127.011C82.3042 125.879 81.3874 124.96 80.2564 124.96C79.1254 124.96 78.2085 125.879 78.2085 127.011C78.2085 128.144 79.1254 129.062 80.2564 129.062Z" fill="#0165FF"/>
<path d="M73.5762 149.571C74.7072 149.571 75.624 148.653 75.624 147.52C75.624 146.387 74.7072 145.469 73.5762 145.469C72.4452 145.469 71.5283 146.387 71.5283 147.52C71.5283 148.653 72.4452 149.571 73.5762 149.571Z" fill="#0165FF"/>
<path d="M80.2564 149.571C81.3874 149.571 82.3042 148.653 82.3042 147.52C82.3042 146.387 81.3874 145.469 80.2564 145.469C79.1254 145.469 78.2085 146.387 78.2085 147.52C78.2085 148.653 79.1254 149.571 80.2564 149.571Z" fill="#0165FF"/>
<path d="M220.175 222H7.14477C6.68874 222 6.31934 221.838 6.31934 221.638C6.31934 221.438 6.68874 221.276 7.14477 221.276H220.175C220.63 221.276 221 221.438 221 221.638C221 221.838 220.63 222 220.175 222Z" fill="#3F3D56"/>
<path d="M167.542 145.447C167.688 145.514 167.828 145.592 167.961 145.681L181.269 139.993L181.744 136.482L187.061 136.449L186.747 144.502L169.182 149.154C169.145 149.276 169.101 149.396 169.049 149.513C168.795 150.056 168.387 150.511 167.875 150.822C167.364 151.133 166.772 151.286 166.174 151.261C165.576 151.236 164.999 151.035 164.515 150.683C164.03 150.331 163.661 149.843 163.453 149.281C163.245 148.719 163.207 148.108 163.344 147.525C163.481 146.941 163.788 146.412 164.224 146.002C164.661 145.592 165.209 145.321 165.8 145.223C166.39 145.124 166.996 145.202 167.542 145.447Z" fill="#FFB8B8"/>
<path d="M188.995 218.417H185.357L183.627 204.365L188.996 204.366L188.995 218.417Z" fill="#FFB8B8"/>
<path d="M182.759 217.376H189.775V221.8H178.342C178.342 220.627 178.808 219.502 179.636 218.672C180.464 217.843 181.588 217.376 182.759 217.376Z" fill="#2F2E41"/>
<path d="M203.142 217.388L199.522 217.745L196.424 203.931L201.767 203.404L203.142 217.388Z" fill="#FFB8B8"/>
<path d="M196.834 216.964L203.816 216.276L204.249 220.678L192.872 221.8C192.815 221.222 192.872 220.639 193.041 220.083C193.209 219.527 193.485 219.009 193.853 218.56C194.221 218.111 194.674 217.739 195.185 217.465C195.697 217.192 196.257 217.021 196.834 216.964Z" fill="#2F2E41"/>
<path d="M190.008 121.577C194.032 121.577 197.295 118.31 197.295 114.279C197.295 110.248 194.032 106.98 190.008 106.98C185.983 106.98 182.72 110.248 182.72 114.279C182.72 118.31 185.983 121.577 190.008 121.577Z" fill="#FFB8B8"/>
<path d="M184.545 215.576C184.232 215.577 183.929 215.467 183.689 215.266C183.45 215.065 183.289 214.786 183.235 214.477C181.352 204.01 175.198 169.783 175.05 168.835C175.047 168.813 175.045 168.791 175.046 168.769V166.217C175.045 166.124 175.074 166.034 175.129 165.958L175.942 164.818C175.98 164.763 176.031 164.717 176.09 164.685C176.149 164.653 176.214 164.635 176.281 164.632C180.916 164.414 196.096 163.776 196.829 164.694C197.566 165.616 197.306 168.41 197.246 168.961L197.249 169.019L204.069 212.699C204.122 213.048 204.036 213.403 203.83 213.689C203.624 213.974 203.314 214.167 202.967 214.225L198.707 214.928C198.39 214.979 198.065 214.915 197.791 214.746C197.518 214.577 197.313 214.316 197.216 214.009C195.898 209.793 191.481 195.61 189.95 190.122C189.94 190.087 189.918 190.057 189.888 190.037C189.858 190.017 189.822 190.009 189.786 190.014C189.751 190.019 189.718 190.037 189.695 190.064C189.671 190.092 189.659 190.127 189.659 190.163C189.735 195.394 189.92 208.742 189.984 213.352L189.991 213.849C189.994 214.185 189.871 214.51 189.646 214.759C189.421 215.009 189.111 215.165 188.777 215.197L184.669 215.57C184.627 215.574 184.586 215.576 184.545 215.576Z" fill="#2F2E41"/>
<path d="M185.383 124.448C184.111 125.205 183.35 126.596 182.913 128.012C182.105 130.633 181.618 133.343 181.464 136.083L181.002 144.284L175.289 166.027C180.241 170.223 183.097 169.27 189.763 165.837C196.428 162.405 197.19 166.982 197.19 166.982L198.523 148.481L200.427 128.265C200 127.749 199.516 127.283 198.985 126.876C197.225 125.505 195.177 124.552 192.995 124.089C190.814 123.626 188.556 123.665 186.392 124.203L185.383 124.448Z" fill="#0165FF"/>
<path d="M183.527 149.839C183.681 149.896 183.829 149.966 183.972 150.048L197.13 143.452L197.349 139.878L202.777 139.503L203.068 147.649L185.483 153.473C185.34 154.09 185.012 154.649 184.544 155.074C184.076 155.5 183.489 155.773 182.862 155.857C182.235 155.94 181.598 155.831 181.035 155.543C180.472 155.255 180.009 154.803 179.709 154.245C179.409 153.688 179.286 153.052 179.355 152.422C179.425 151.793 179.684 151.199 180.098 150.721C180.513 150.243 181.063 149.902 181.675 149.744C182.288 149.587 182.934 149.62 183.527 149.839Z" fill="#FFB8B8"/>
<path d="M200.332 128.357C203.569 129.502 204.14 141.9 204.14 141.9C200.331 139.802 195.76 143.235 195.76 143.235C195.76 143.235 194.808 139.993 193.666 135.797C193.32 134.616 193.279 133.368 193.546 132.167C193.812 130.967 194.377 129.853 195.189 128.93C195.189 128.93 197.094 127.212 200.332 128.357Z" fill="#0165FF"/>
<path d="M196.542 116.21C195.634 115.482 194.395 116.804 194.395 116.804L193.669 110.257C193.669 110.257 189.129 110.802 186.223 110.075C183.318 109.349 182.864 112.712 182.864 112.712C182.714 111.354 182.684 109.984 182.773 108.62C182.954 106.984 185.315 105.347 189.492 104.255C193.669 103.164 195.848 107.893 195.848 107.893C198.753 109.348 197.45 116.937 196.542 116.21Z" fill="#2F2E41"/>
</svg>
